<mxfile host="app.diagrams.net" agent="Mozilla/5.0 (Windows NT 10.0; Win64; x64) AppleWebKit/537.36 (KHTML, like Gecko) Chrome/131.0.0.0 Safari/537.36" version="24.8.8">
  <diagram name="Page-1" id="58cdce13-f638-feb5-8d6f-7d28b1aa9fa0">
    <mxGraphModel dx="4054" dy="1150" grid="1" gridSize="10" guides="1" tooltips="1" connect="1" arrows="1" fold="1" page="1" pageScale="1" pageWidth="1100" pageHeight="850" background="none" math="0" shadow="0">
      <root>
        <mxCell id="0" />
        <mxCell id="1" parent="0" />
        <mxCell id="4aQQsmctcQ0irrUEqPXQ-61" value="" style="whiteSpace=wrap;html=1;aspect=fixed;fillColor=#09555B;labelBackgroundColor=none;strokeColor=#BAC8D3;fontColor=#EEEEEE;" parent="1" vertex="1">
          <mxGeometry x="-407" y="232.07999999999998" width="400" height="400" as="geometry" />
        </mxCell>
        <mxCell id="4aQQsmctcQ0irrUEqPXQ-72" value="" style="whiteSpace=wrap;html=1;aspect=fixed;fillColor=#09555B;labelBackgroundColor=none;strokeColor=#BAC8D3;fontColor=#EEEEEE;" parent="1" vertex="1">
          <mxGeometry x="-1047" y="200" width="450" height="450" as="geometry" />
        </mxCell>
        <mxCell id="4aQQsmctcQ0irrUEqPXQ-3" value="&lt;font style=&quot;font-size: 14px;&quot;&gt;Green Light&lt;/font&gt;" style="ellipse;whiteSpace=wrap;html=1;movable=1;resizable=1;rotatable=1;deletable=1;editable=1;locked=0;connectable=1;labelBackgroundColor=none;fillColor=#09555B;strokeColor=#BAC8D3;fontColor=#EEEEEE;" parent="1" vertex="1">
          <mxGeometry x="-860" y="280.31" width="120" height="80" as="geometry" />
        </mxCell>
        <mxCell id="4aQQsmctcQ0irrUEqPXQ-4" value="&lt;h1 style=&quot;margin-top: 0px;&quot;&gt;State Machine Diagram for Traffic Lights with Pedestrian light&lt;br&gt;&lt;/h1&gt;" style="text;html=1;whiteSpace=wrap;overflow=hidden;rounded=0;labelBackgroundColor=none;fontColor=#EEEEEE;" parent="1" vertex="1">
          <mxGeometry x="-917" y="80" width="470" height="70" as="geometry" />
        </mxCell>
        <mxCell id="4aQQsmctcQ0irrUEqPXQ-5" value="&lt;font style=&quot;font-size: 14px;&quot;&gt;Yellow Light&lt;/font&gt;" style="ellipse;whiteSpace=wrap;html=1;movable=1;resizable=1;rotatable=1;deletable=1;editable=1;locked=0;connectable=1;labelBackgroundColor=none;fillColor=#09555B;strokeColor=#BAC8D3;fontColor=#EEEEEE;" parent="1" vertex="1">
          <mxGeometry x="-860" y="410.31" width="120" height="80" as="geometry" />
        </mxCell>
        <mxCell id="4aQQsmctcQ0irrUEqPXQ-6" value="&lt;font style=&quot;font-size: 14px;&quot;&gt;Red Light&lt;/font&gt;" style="ellipse;whiteSpace=wrap;html=1;movable=1;resizable=1;rotatable=1;deletable=1;editable=1;locked=0;connectable=1;labelBackgroundColor=none;fillColor=#09555B;strokeColor=#BAC8D3;fontColor=#EEEEEE;" parent="1" vertex="1">
          <mxGeometry x="-860" y="550.31" width="120" height="80" as="geometry" />
        </mxCell>
        <mxCell id="4aQQsmctcQ0irrUEqPXQ-20" value="" style="group;rotation=80;movable=1;resizable=1;rotatable=1;deletable=1;editable=1;locked=0;connectable=1;labelBackgroundColor=none;fontColor=#EEEEEE;" parent="1" vertex="1" connectable="0">
          <mxGeometry x="-1070" y="310.31" width="173.32" height="190" as="geometry" />
        </mxCell>
        <mxCell id="4aQQsmctcQ0irrUEqPXQ-18" value="" style="shape=image;verticalLabelPosition=bottom;labelBackgroundColor=none;verticalAlign=top;aspect=fixed;imageAspect=0;image=data:image/png,iVBORw0KGgoAAAANSUhEUgAAAQAAAAEACAYAAABccqhmAAABS2lUWHRYTUw6Y29tLmFkb2JlLnhtcAAAAAAAPD94cGFja2V0IGJlZ2luPSLvu78iIGlkPSJXNU0wTXBDZWhpSHpyZVN6TlRjemtjOWQiPz4KPHg6eG1wbWV0YSB4bWxuczp4PSJhZG9iZTpuczptZXRhLyIgeDp4bXB0az0iQWRvYmUgWE1QIENvcmUgNS42LWMxNDIgNzkuMTYwOTI0LCAyMDE3LzA3LzEzLTAxOjA2OjM5ICAgICAgICAiPgogPHJkZjpSREYgeG1sbnM6cmRmPSJodHRwOi8vd3d3LnczLm9yZy8xOTk5LzAyLzIyLXJkZi1zeW50YXgtbnMjIj4KICA8cmRmOkRlc2NyaXB0aW9uIHJkZjphYm91dD0iIi8+CiA8L3JkZjpSREY+CjwveDp4bXBtZXRhPgo8P3hwYWNrZXQgZW5kPSJyIj8+nhxg7wAADFVJREFUeJzt3WnMXFUZwPF/WSQsBcomlUUK2AhFaQERZFPKJkVUrEQ0VERjNAjiBwGRoCIYxUSMS0wMikJEguCCgrLGKvuOBZSKgmytaO1qG0KhfnhKLDDnzn1n5ty5987/l8yHzp2596TvfZ452z0HJEmSJEmSJEmSJEmSJEmSJEmSJEmSJEmSJEmSJEmSJEmSJEmSJEmSJEmSJEmSJEmSJEmSJEmSJEmSJEmSJEmSJEmSJEmSJEmSJEmSJEmSJEmSJEmSJEmSJEmSJEmSJEmSJEmSJEmSJEmSJEmSJGBcrhOvWrUq16n1cmsDGwC7AOOBNwMbAxOAKWt8bltgm5LnfBp4ao1/PwQsBJYAfwKWAn8GlgMv9FF2lTRuXJ5QNQE0ywRg6urXDsCuq18bEUFfpSXAMuDh1a/HgftXvxZWXJbWMwGMnrWBPYH9iF/13Yhg32CYhSphOZEQHiRqC7cA92BNoS8mgNGwK3A4sD+wD/C64RZnYJ4BbgduBq4lEoTGwATQTusDRxEBfwQwebjFqcxc4HdEQvgNsGK4xak/E0B7vBT0R65+bTXc4gzds8A1q18mgwQTQPMdAJwIzAC2rOB6K4BVRNv7fsbeBl+b6Gxcm7hP1h9o6Tr7F3A18EPgjxVcrzFMAM20JfB+4CPAXhnOv5wYjlsI3AksIIbsVgL3AS+ufi3p8fwbA2utfk0D1iGGFjcH9iZGJXYhT8fk3cBFwM+IxDDSTADNMg04BZhJDNENwhLil/wBond9DtGWHvaQ2wSi7+JNxGjF7kTNYVDDksuAK4BvEUltJJkAmmEG8FngoAGc6xngDqKj7Bai53zpAM5bhfHEiMZ+RAfnWxnMiMZs4OtEM2GkmADq7UjgNPoP/NuA64ignw083+f56mJd4v9mf+AwYN8+zzcbOJ/oOBwJJoB6mgGcA+zRxzluAH5LDIuNyvj4rsSw5zuBQ/o4z73A2YxAjcAEUC/9/uLPAX5EDHvNHVCZmmoyMSx6AtGP0IvW1whMAPUwDfgS8K4evvsfojPrImJWnF5tH2LEZCawWQ/f/zXwBVrYWWgCGK6NiKr+Z3r47hzg28DlwOJBFqrFNgGOBU6mt1rBBUTTYNkgCzVMJoDhORE4F5g4xu9dS/RY3zjwEo2W6cTIyuFj/N484CxiUlHjmQCqNwX4DvD2MX7PwM+j10Twe+BTxASpxjIBVOt04Ktj/M7FROA/OPjiaA17E82xsSaCM4CvDb441TABVGMKcCHRGVWWv/jD0UuN4HbgYzSwNmACyO9UovOorDlEj/Mv8hRHJb2XGJkZS2fhR2lY34AJIJ8NiKG5Y0t+fgXwRWLcWfVxGvF3KfvU4uXEkOPyXAUaJBNAHvsAlwKTSn7+EuBMXr5gpupjW+ArwPElP/8Y8EEaMC8jVwJYK8tZm+FUYu59meB/GjgGmIXBX2dPEX+jY4i/WTeTiHvg1JyFqrNRrQFcSLQDy7gYOIkWTSoZERsB3yUSQhk/IDoIa8kmwGBsAVxFuafRFgAfB36etUTK7Rjg+8QiJt3cBhwN/DtriXpgAujfrsQTd9uV+OyvgE8Ss8nUfBOJmlyZJw+fJJ5UrNWTmfYB9Gc6MfZbJvhPB96Dwd8m84BDib9tN9sR98r0rCWqiVGoAbyPeAqvmwXEmLKLUbbbDODHlGsSzASuzFuccqwB9OZMygX/bGLnHYO//a4m/tazS3z2CuIeaq02J4AzgfNKfO4S4oGf+VlLozqZT/zNLynx2fNocRJoawIoG/znUn6YSO0zi7gHumltEmhjH0DZ4K9N+05DV7af6PPETMPK2QdQzucw+DV2VxL3RDfnEfdYa7SpBlDml38hcDCxwYb0SlOBm4jNToqcTsUPgzkRqNi7gV92+cxCYE/iARApZRJwD92TwKHEku6VMAGkTaf7H8Lg11iUTQKHUNFCMCaAziYBf+/yGYNfvSibBHakgnvLTsBX24LukzkWYPCrN48R9063zVdnAxvmL04eTU4A19N9bv9+GPzq3WN0X3NwOxq8I1FTE8BFRI9tkZnAIxWURe12F92HCA8k7snGaWICOInYR66I4/wapCuJpcOKnEDcm43StE7A3ek+hn8OsVqvNGjnE0uRF5kKPDDoCzsKELWVecBWBZ+5DDhu0BeW1vBT4AMFx58lFiB5cZAXdRQg1t8vCv6HMfiV33EUrxa0FQ3aK6IpCWAWsVZbygpiZpZUhUOJey7laBrylGkTmgBlJvtMJ+ZwS1U5mO6zAAc2SWiUmwDdVuU9A4Nf1buJ7g+f1X5F6bongNMoHu+/gwbv+KrGO4u4B1OmEvdwbdW5CbAT8GiXz2wKLO73QlIfNgEWdfnMtpTbqShpFJsAl3U5PhODX8O3mO4zBS+uoiC9qGsCOBbYq+D4ZTjTT/VxJcU/WAdTfvfpStWxCbAusTXTxonj/yWq/it7vYCUwTpEUyD1ZOAS4gnW53s5+Sg1AS4gHfwQCzga/KqblcS9mbIxcW/XSt1qANsBTxQcvx44rKcCSdW4juJJaZOAx8d60lF5FuBGor2UMhE38FC9bU3xvpJXEWtYjskoNAEOpDj4v4zBr/qbT9yrKUcDB1RUlq7qVAO4j/Skn6cot7OvVBdPEuP/ndwPTBvLydpeAziI4hl/p1ZVEGlAiu7ZqcQ9P3R1qQHcSzoj3ga8re8CSdW7Fdg3cew+YI+yJ2pzDeBAiqtDp1RVEGnAiu7dacS9P1R1qAEU/frfSqzsKzXVLaRrsKVrAW2tAUyn+Nf/01UVRMqk6B6eRsTA0Aw7AZxdcOxW4O6qCiJlcjdxL6cUxUB2w2wCvAGYW3B8b2JNdqnp3gLcWXB8MvDXohO0sQlQtHT3HzD41R53Efd0ytCWsR9WDWBDYt++9RLHK916WarAIcSzLJ08B2xOPOnaUdtqALNIB//jGPxqnxtIPwS0HvDh6oryf8NKACcXHPtmZaWQqvWNgmND2VZsGE2AvUi375cRT1Mlq0JSg21K8XbjuwB/6XSgTU2Aot17rsLgV3stongpu09UVZCXVF0DWIt4sm9i4mv7EzOnpLbah3i+pZN5xBOEr9pXsC01gCNIB/98DH613+2k17WYSMRIZapOAB8qOPa9ykohDVfRvX58ZaWg2ibA+sA/gfGJr/S9eYLUENsQTeFOFgETXvlmG5oAe5MO/vsx+DU6nibu+U42pXhPjIGqMgEcVXDs0spKIdVD0T1f1FQeqCqbAE+QXtdvJ7pvAS61yY7A3xLHHgamrPlG05cFfz3paZBPAtvnKodUY0U/ijsA/3jpH03vAyga2vhJRWWQ6qbo3j+yigJUlQCOLjh2TUVlkOqm6N6vZAesqpoAzwJbdvjYCuC1wNJc5ZBqbDwxNL5+h2OPEf0EQLObAJPoHPwQDwUZ/BpVS0k/GDeJNRJALlUkgKLtvmZXcH2pzopi4B25L15FAiha+/ymCq4v1VlRDBTtljUQVSSA1KymF4h10aVRdh+wMnEs+/ZhuRPAZsDOiWMPAoszX1+qu8WkVwR+IxFD2eROADsDr0kcuznztaWmSO1/sS7pH9CByJ0AphQcK9oTQBoldxQcK4qhvuVOALsn3l9F7AkoCR4gYqKTVAwNRO4EsEPi/XHAI5mvLTXFI6Qn5U3KeeGcCWA9YLfEsbkUr44qjZKFpJvE2wPr5LpwzgSwivSTTk+QHvqQRs1KIiY6mUzGKfs5E8DOpNs1Vv+ll0vFxDrERrpZ5EwAW5Pe/mtBxutKTZSKidcQsZRFzgRQ1HnxUMbrSk1UFBPZOgJzJoDJBceWZLyu1ERFMVEUS33JmQAWJd5/nnSHhzSqniBio5NULPUtZwLYM/H+c8CjGa8rNdGjRGx0koqlvuXuBOxkQ9L7A0ijajwRG500shNwReL9+aQznTSqniO9Z2AqlvqWMwEsT7w/B1iW8bpSEy0jYqOTVCz1bRijAOtmvKbUZKnYaOQoQGr2UrZpjVLDpWKjkTMBs1VbpBHTyCZAqqd/k4zXlJosFRvZRs2yPWYIPEPngs/LeE2pyebReQkw986QJEmSJEmSJEmSJEmSJEmSJEmSJEmSJEmSJEmSJEmSJEmSJEmSJEmSJEmSJEmSJEmSJEmSJEmSJEmSJEmSJEmSJEmSJEmSJEmSJEmSJEmSJEmSJEmSJEmSJEmSJEmSJEmSJEmSJEmSJEmSJEmSJEmSJElS//4Hmyxv28Uz2yUAAAAASUVORK5CYII=;rotation=-100;movable=1;resizable=1;rotatable=1;deletable=1;editable=1;locked=0;connectable=1;fillColor=#09555B;strokeColor=#BAC8D3;fontColor=#EEEEEE;" parent="4aQQsmctcQ0irrUEqPXQ-20" vertex="1">
          <mxGeometry x="80" y="-7" width="170.16501696143104" height="170.16501696143104" as="geometry" />
        </mxCell>
        <mxCell id="4aQQsmctcQ0irrUEqPXQ-19" value="" style="triangle;whiteSpace=wrap;html=1;rotation=-10;movable=1;resizable=1;rotatable=1;deletable=1;editable=1;locked=0;connectable=1;labelBackgroundColor=none;fillColor=#09555B;strokeColor=#BAC8D3;fontColor=#EEEEEE;" parent="4aQQsmctcQ0irrUEqPXQ-20" vertex="1">
          <mxGeometry x="186" y="-15" width="27.081250000000004" height="29.6875" as="geometry" />
        </mxCell>
        <mxCell id="4aQQsmctcQ0irrUEqPXQ-26" value="" style="group;rotation=-100;movable=1;resizable=1;rotatable=1;deletable=1;editable=1;locked=0;connectable=1;labelBackgroundColor=none;fontColor=#EEEEEE;" parent="1" vertex="1" connectable="0">
          <mxGeometry x="-710" y="260" width="200" height="197.16750000000002" as="geometry" />
        </mxCell>
        <mxCell id="4aQQsmctcQ0irrUEqPXQ-27" value="" style="shape=image;verticalLabelPosition=bottom;labelBackgroundColor=none;verticalAlign=top;aspect=fixed;imageAspect=0;image=data:image/png,iVBORw0KGgoAAAANSUhEUgAAAQAAAAEACAYAAABccqhmAAABS2lUWHRYTUw6Y29tLmFkb2JlLnhtcAAAAAAAPD94cGFja2V0IGJlZ2luPSLvu78iIGlkPSJXNU0wTXBDZWhpSHpyZVN6TlRjemtjOWQiPz4KPHg6eG1wbWV0YSB4bWxuczp4PSJhZG9iZTpuczptZXRhLyIgeDp4bXB0az0iQWRvYmUgWE1QIENvcmUgNS42LWMxNDIgNzkuMTYwOTI0LCAyMDE3LzA3LzEzLTAxOjA2OjM5ICAgICAgICAiPgogPHJkZjpSREYgeG1sbnM6cmRmPSJodHRwOi8vd3d3LnczLm9yZy8xOTk5LzAyLzIyLXJkZi1zeW50YXgtbnMjIj4KICA8cmRmOkRlc2NyaXB0aW9uIHJkZjphYm91dD0iIi8+CiA8L3JkZjpSREY+CjwveDp4bXBtZXRhPgo8P3hwYWNrZXQgZW5kPSJyIj8+nhxg7wAADFVJREFUeJzt3WnMXFUZwPF/WSQsBcomlUUK2AhFaQERZFPKJkVUrEQ0VERjNAjiBwGRoCIYxUSMS0wMikJEguCCgrLGKvuOBZSKgmytaO1qG0KhfnhKLDDnzn1n5ty5987/l8yHzp2596TvfZ452z0HJEmSJEmSJEmSJEmSJEmSJEmSJEmSJEmSJEmSJEmSJEmSJEmSJEmSJEmSJEmSJEmSJEmSJEmSJEmSJEmSJEmSJEmSJEmSJEmSJEmSJEmSJEmSJEmSJEmSJEmSJEmSJEmSJEmSJEmSJEmSJEmSJGBcrhOvWrUq16n1cmsDGwC7AOOBNwMbAxOAKWt8bltgm5LnfBp4ao1/PwQsBJYAfwKWAn8GlgMv9FF2lTRuXJ5QNQE0ywRg6urXDsCuq18bEUFfpSXAMuDh1a/HgftXvxZWXJbWMwGMnrWBPYH9iF/13Yhg32CYhSphOZEQHiRqC7cA92BNoS8mgNGwK3A4sD+wD/C64RZnYJ4BbgduBq4lEoTGwATQTusDRxEBfwQwebjFqcxc4HdEQvgNsGK4xak/E0B7vBT0R65+bTXc4gzds8A1q18mgwQTQPMdAJwIzAC2rOB6K4BVRNv7fsbeBl+b6Gxcm7hP1h9o6Tr7F3A18EPgjxVcrzFMAM20JfB+4CPAXhnOv5wYjlsI3AksIIbsVgL3AS+ufi3p8fwbA2utfk0D1iGGFjcH9iZGJXYhT8fk3cBFwM+IxDDSTADNMg04BZhJDNENwhLil/wBond9DtGWHvaQ2wSi7+JNxGjF7kTNYVDDksuAK4BvEUltJJkAmmEG8FngoAGc6xngDqKj7Bai53zpAM5bhfHEiMZ+RAfnWxnMiMZs4OtEM2GkmADq7UjgNPoP/NuA64ignw083+f56mJd4v9mf+AwYN8+zzcbOJ/oOBwJJoB6mgGcA+zRxzluAH5LDIuNyvj4rsSw5zuBQ/o4z73A2YxAjcAEUC/9/uLPAX5EDHvNHVCZmmoyMSx6AtGP0IvW1whMAPUwDfgS8K4evvsfojPrImJWnF5tH2LEZCawWQ/f/zXwBVrYWWgCGK6NiKr+Z3r47hzg28DlwOJBFqrFNgGOBU6mt1rBBUTTYNkgCzVMJoDhORE4F5g4xu9dS/RY3zjwEo2W6cTIyuFj/N484CxiUlHjmQCqNwX4DvD2MX7PwM+j10Twe+BTxASpxjIBVOt04Ktj/M7FROA/OPjiaA17E82xsSaCM4CvDb441TABVGMKcCHRGVWWv/jD0UuN4HbgYzSwNmACyO9UovOorDlEj/Mv8hRHJb2XGJkZS2fhR2lY34AJIJ8NiKG5Y0t+fgXwRWLcWfVxGvF3KfvU4uXEkOPyXAUaJBNAHvsAlwKTSn7+EuBMXr5gpupjW+ArwPElP/8Y8EEaMC8jVwJYK8tZm+FUYu59meB/GjgGmIXBX2dPEX+jY4i/WTeTiHvg1JyFqrNRrQFcSLQDy7gYOIkWTSoZERsB3yUSQhk/IDoIa8kmwGBsAVxFuafRFgAfB36etUTK7Rjg+8QiJt3cBhwN/DtriXpgAujfrsQTd9uV+OyvgE8Ss8nUfBOJmlyZJw+fJJ5UrNWTmfYB9Gc6MfZbJvhPB96Dwd8m84BDib9tN9sR98r0rCWqiVGoAbyPeAqvmwXEmLKLUbbbDODHlGsSzASuzFuccqwB9OZMygX/bGLnHYO//a4m/tazS3z2CuIeaq02J4AzgfNKfO4S4oGf+VlLozqZT/zNLynx2fNocRJoawIoG/znUn6YSO0zi7gHumltEmhjH0DZ4K9N+05DV7af6PPETMPK2QdQzucw+DV2VxL3RDfnEfdYa7SpBlDml38hcDCxwYb0SlOBm4jNToqcTsUPgzkRqNi7gV92+cxCYE/iARApZRJwD92TwKHEku6VMAGkTaf7H8Lg11iUTQKHUNFCMCaAziYBf+/yGYNfvSibBHakgnvLTsBX24LukzkWYPCrN48R9063zVdnAxvmL04eTU4A19N9bv9+GPzq3WN0X3NwOxq8I1FTE8BFRI9tkZnAIxWURe12F92HCA8k7snGaWICOInYR66I4/wapCuJpcOKnEDcm43StE7A3ek+hn8OsVqvNGjnE0uRF5kKPDDoCzsKELWVecBWBZ+5DDhu0BeW1vBT4AMFx58lFiB5cZAXdRQg1t8vCv6HMfiV33EUrxa0FQ3aK6IpCWAWsVZbygpiZpZUhUOJey7laBrylGkTmgBlJvtMJ+ZwS1U5mO6zAAc2SWiUmwDdVuU9A4Nf1buJ7g+f1X5F6bongNMoHu+/gwbv+KrGO4u4B1OmEvdwbdW5CbAT8GiXz2wKLO73QlIfNgEWdfnMtpTbqShpFJsAl3U5PhODX8O3mO4zBS+uoiC9qGsCOBbYq+D4ZTjTT/VxJcU/WAdTfvfpStWxCbAusTXTxonj/yWq/it7vYCUwTpEUyD1ZOAS4gnW53s5+Sg1AS4gHfwQCzga/KqblcS9mbIxcW/XSt1qANsBTxQcvx44rKcCSdW4juJJaZOAx8d60lF5FuBGor2UMhE38FC9bU3xvpJXEWtYjskoNAEOpDj4v4zBr/qbT9yrKUcDB1RUlq7qVAO4j/Skn6cot7OvVBdPEuP/ndwPTBvLydpeAziI4hl/p1ZVEGlAiu7ZqcQ9P3R1qQHcSzoj3ga8re8CSdW7Fdg3cew+YI+yJ2pzDeBAiqtDp1RVEGnAiu7dacS9P1R1qAEU/frfSqzsKzXVLaRrsKVrAW2tAUyn+Nf/01UVRMqk6B6eRsTA0Aw7AZxdcOxW4O6qCiJlcjdxL6cUxUB2w2wCvAGYW3B8b2JNdqnp3gLcWXB8MvDXohO0sQlQtHT3HzD41R53Efd0ytCWsR9WDWBDYt++9RLHK916WarAIcSzLJ08B2xOPOnaUdtqALNIB//jGPxqnxtIPwS0HvDh6oryf8NKACcXHPtmZaWQqvWNgmND2VZsGE2AvUi375cRT1Mlq0JSg21K8XbjuwB/6XSgTU2Aot17rsLgV3stongpu09UVZCXVF0DWIt4sm9i4mv7EzOnpLbah3i+pZN5xBOEr9pXsC01gCNIB/98DH613+2k17WYSMRIZapOAB8qOPa9ykohDVfRvX58ZaWg2ibA+sA/gfGJr/S9eYLUENsQTeFOFgETXvlmG5oAe5MO/vsx+DU6nibu+U42pXhPjIGqMgEcVXDs0spKIdVD0T1f1FQeqCqbAE+QXtdvJ7pvAS61yY7A3xLHHgamrPlG05cFfz3paZBPAtvnKodUY0U/ijsA/3jpH03vAyga2vhJRWWQ6qbo3j+yigJUlQCOLjh2TUVlkOqm6N6vZAesqpoAzwJbdvjYCuC1wNJc5ZBqbDwxNL5+h2OPEf0EQLObAJPoHPwQDwUZ/BpVS0k/GDeJNRJALlUkgKLtvmZXcH2pzopi4B25L15FAiha+/ymCq4v1VlRDBTtljUQVSSA1KymF4h10aVRdh+wMnEs+/ZhuRPAZsDOiWMPAoszX1+qu8WkVwR+IxFD2eROADsDr0kcuznztaWmSO1/sS7pH9CByJ0AphQcK9oTQBoldxQcK4qhvuVOALsn3l9F7AkoCR4gYqKTVAwNRO4EsEPi/XHAI5mvLTXFI6Qn5U3KeeGcCWA9YLfEsbkUr44qjZKFpJvE2wPr5LpwzgSwivSTTk+QHvqQRs1KIiY6mUzGKfs5E8DOpNs1Vv+ll0vFxDrERrpZ5EwAW5Pe/mtBxutKTZSKidcQsZRFzgRQ1HnxUMbrSk1UFBPZOgJzJoDJBceWZLyu1ERFMVEUS33JmQAWJd5/nnSHhzSqniBio5NULPUtZwLYM/H+c8CjGa8rNdGjRGx0koqlvuXuBOxkQ9L7A0ijajwRG500shNwReL9+aQznTSqniO9Z2AqlvqWMwEsT7w/B1iW8bpSEy0jYqOTVCz1bRijAOtmvKbUZKnYaOQoQGr2UrZpjVLDpWKjkTMBs1VbpBHTyCZAqqd/k4zXlJosFRvZRs2yPWYIPEPngs/LeE2pyebReQkw986QJEmSJEmSJEmSJEmSJEmSJEmSJEmSJEmSJEmSJEmSJEmSJEmSJEmSJEmSJEmSJEmSJEmSJEmSJEmSJEmSJEmSJEmSJEmSJEmSJEmSJEmSJEmSJEmSJEmSJEmSJEmSJEmSJEmSJEmSJEmSJEmSJEmSJElS//4Hmyxv28Uz2yUAAAAASUVORK5CYII=;rotation=-280;movable=1;resizable=1;rotatable=1;deletable=1;editable=1;locked=0;connectable=1;fillColor=#09555B;strokeColor=#BAC8D3;fontColor=#EEEEEE;" parent="4aQQsmctcQ0irrUEqPXQ-26" vertex="1">
          <mxGeometry x="-77" y="27" width="170.16501696143104" height="170.16501696143104" as="geometry" />
        </mxCell>
        <mxCell id="4aQQsmctcQ0irrUEqPXQ-28" value="" style="triangle;whiteSpace=wrap;html=1;rotation=-190;movable=1;resizable=1;rotatable=1;deletable=1;editable=1;locked=0;connectable=1;labelBackgroundColor=none;fillColor=#09555B;strokeColor=#BAC8D3;fontColor=#EEEEEE;" parent="4aQQsmctcQ0irrUEqPXQ-26" vertex="1">
          <mxGeometry x="-32.73" y="168.31" width="20" height="27.17" as="geometry" />
        </mxCell>
        <mxCell id="4aQQsmctcQ0irrUEqPXQ-68" value="sends signal &#39;g&#39;" style="text;html=1;align=center;verticalAlign=middle;whiteSpace=wrap;rounded=0;labelBackgroundColor=none;fontColor=#EEEEEE;" parent="4aQQsmctcQ0irrUEqPXQ-26" vertex="1">
          <mxGeometry x="153" y="10" width="97" height="30" as="geometry" />
        </mxCell>
        <mxCell id="4aQQsmctcQ0irrUEqPXQ-69" value="sends signal &#39;y&#39;" style="text;html=1;align=center;verticalAlign=middle;whiteSpace=wrap;rounded=0;labelBackgroundColor=none;fontColor=#EEEEEE;" parent="4aQQsmctcQ0irrUEqPXQ-26" vertex="1">
          <mxGeometry x="153" y="166.89999999999998" width="97" height="30" as="geometry" />
        </mxCell>
        <mxCell id="4aQQsmctcQ0irrUEqPXQ-32" value="" style="group;rotation=80;movable=1;resizable=1;rotatable=1;deletable=1;editable=1;locked=0;connectable=1;labelBackgroundColor=none;fontColor=#EEEEEE;" parent="1" vertex="1" connectable="0">
          <mxGeometry x="-1070" y="475.31" width="256.35" height="190" as="geometry" />
        </mxCell>
        <mxCell id="4aQQsmctcQ0irrUEqPXQ-33" value="" style="shape=image;verticalLabelPosition=bottom;labelBackgroundColor=none;verticalAlign=top;aspect=fixed;imageAspect=0;image=data:image/png,iVBORw0KGgoAAAANSUhEUgAAAQAAAAEACAYAAABccqhmAAABS2lUWHRYTUw6Y29tLmFkb2JlLnhtcAAAAAAAPD94cGFja2V0IGJlZ2luPSLvu78iIGlkPSJXNU0wTXBDZWhpSHpyZVN6TlRjemtjOWQiPz4KPHg6eG1wbWV0YSB4bWxuczp4PSJhZG9iZTpuczptZXRhLyIgeDp4bXB0az0iQWRvYmUgWE1QIENvcmUgNS42LWMxNDIgNzkuMTYwOTI0LCAyMDE3LzA3LzEzLTAxOjA2OjM5ICAgICAgICAiPgogPHJkZjpSREYgeG1sbnM6cmRmPSJodHRwOi8vd3d3LnczLm9yZy8xOTk5LzAyLzIyLXJkZi1zeW50YXgtbnMjIj4KICA8cmRmOkRlc2NyaXB0aW9uIHJkZjphYm91dD0iIi8+CiA8L3JkZjpSREY+CjwveDp4bXBtZXRhPgo8P3hwYWNrZXQgZW5kPSJyIj8+nhxg7wAADFVJREFUeJzt3WnMXFUZwPF/WSQsBcomlUUK2AhFaQERZFPKJkVUrEQ0VERjNAjiBwGRoCIYxUSMS0wMikJEguCCgrLGKvuOBZSKgmytaO1qG0KhfnhKLDDnzn1n5ty5987/l8yHzp2596TvfZ452z0HJEmSJEmSJEmSJEmSJEmSJEmSJEmSJEmSJEmSJEmSJEmSJEmSJEmSJEmSJEmSJEmSJEmSJEmSJEmSJEmSJEmSJEmSJEmSJEmSJEmSJEmSJEmSJEmSJEmSJEmSJEmSJEmSJEmSJEmSJEmSJEmSJGBcrhOvWrUq16n1cmsDGwC7AOOBNwMbAxOAKWt8bltgm5LnfBp4ao1/PwQsBJYAfwKWAn8GlgMv9FF2lTRuXJ5QNQE0ywRg6urXDsCuq18bEUFfpSXAMuDh1a/HgftXvxZWXJbWMwGMnrWBPYH9iF/13Yhg32CYhSphOZEQHiRqC7cA92BNoS8mgNGwK3A4sD+wD/C64RZnYJ4BbgduBq4lEoTGwATQTusDRxEBfwQwebjFqcxc4HdEQvgNsGK4xak/E0B7vBT0R65+bTXc4gzds8A1q18mgwQTQPMdAJwIzAC2rOB6K4BVRNv7fsbeBl+b6Gxcm7hP1h9o6Tr7F3A18EPgjxVcrzFMAM20JfB+4CPAXhnOv5wYjlsI3AksIIbsVgL3AS+ufi3p8fwbA2utfk0D1iGGFjcH9iZGJXYhT8fk3cBFwM+IxDDSTADNMg04BZhJDNENwhLil/wBond9DtGWHvaQ2wSi7+JNxGjF7kTNYVDDksuAK4BvEUltJJkAmmEG8FngoAGc6xngDqKj7Bai53zpAM5bhfHEiMZ+RAfnWxnMiMZs4OtEM2GkmADq7UjgNPoP/NuA64ignw083+f56mJd4v9mf+AwYN8+zzcbOJ/oOBwJJoB6mgGcA+zRxzluAH5LDIuNyvj4rsSw5zuBQ/o4z73A2YxAjcAEUC/9/uLPAX5EDHvNHVCZmmoyMSx6AtGP0IvW1whMAPUwDfgS8K4evvsfojPrImJWnF5tH2LEZCawWQ/f/zXwBVrYWWgCGK6NiKr+Z3r47hzg28DlwOJBFqrFNgGOBU6mt1rBBUTTYNkgCzVMJoDhORE4F5g4xu9dS/RY3zjwEo2W6cTIyuFj/N484CxiUlHjmQCqNwX4DvD2MX7PwM+j10Twe+BTxASpxjIBVOt04Ktj/M7FROA/OPjiaA17E82xsSaCM4CvDb441TABVGMKcCHRGVWWv/jD0UuN4HbgYzSwNmACyO9UovOorDlEj/Mv8hRHJb2XGJkZS2fhR2lY34AJIJ8NiKG5Y0t+fgXwRWLcWfVxGvF3KfvU4uXEkOPyXAUaJBNAHvsAlwKTSn7+EuBMXr5gpupjW+ArwPElP/8Y8EEaMC8jVwJYK8tZm+FUYu59meB/GjgGmIXBX2dPEX+jY4i/WTeTiHvg1JyFqrNRrQFcSLQDy7gYOIkWTSoZERsB3yUSQhk/IDoIa8kmwGBsAVxFuafRFgAfB36etUTK7Rjg+8QiJt3cBhwN/DtriXpgAujfrsQTd9uV+OyvgE8Ss8nUfBOJmlyZJw+fJJ5UrNWTmfYB9Gc6MfZbJvhPB96Dwd8m84BDib9tN9sR98r0rCWqiVGoAbyPeAqvmwXEmLKLUbbbDODHlGsSzASuzFuccqwB9OZMygX/bGLnHYO//a4m/tazS3z2CuIeaq02J4AzgfNKfO4S4oGf+VlLozqZT/zNLynx2fNocRJoawIoG/znUn6YSO0zi7gHumltEmhjH0DZ4K9N+05DV7af6PPETMPK2QdQzucw+DV2VxL3RDfnEfdYa7SpBlDml38hcDCxwYb0SlOBm4jNToqcTsUPgzkRqNi7gV92+cxCYE/iARApZRJwD92TwKHEku6VMAGkTaf7H8Lg11iUTQKHUNFCMCaAziYBf+/yGYNfvSibBHakgnvLTsBX24LukzkWYPCrN48R9063zVdnAxvmL04eTU4A19N9bv9+GPzq3WN0X3NwOxq8I1FTE8BFRI9tkZnAIxWURe12F92HCA8k7snGaWICOInYR66I4/wapCuJpcOKnEDcm43StE7A3ek+hn8OsVqvNGjnE0uRF5kKPDDoCzsKELWVecBWBZ+5DDhu0BeW1vBT4AMFx58lFiB5cZAXdRQg1t8vCv6HMfiV33EUrxa0FQ3aK6IpCWAWsVZbygpiZpZUhUOJey7laBrylGkTmgBlJvtMJ+ZwS1U5mO6zAAc2SWiUmwDdVuU9A4Nf1buJ7g+f1X5F6bongNMoHu+/gwbv+KrGO4u4B1OmEvdwbdW5CbAT8GiXz2wKLO73QlIfNgEWdfnMtpTbqShpFJsAl3U5PhODX8O3mO4zBS+uoiC9qGsCOBbYq+D4ZTjTT/VxJcU/WAdTfvfpStWxCbAusTXTxonj/yWq/it7vYCUwTpEUyD1ZOAS4gnW53s5+Sg1AS4gHfwQCzga/KqblcS9mbIxcW/XSt1qANsBTxQcvx44rKcCSdW4juJJaZOAx8d60lF5FuBGor2UMhE38FC9bU3xvpJXEWtYjskoNAEOpDj4v4zBr/qbT9yrKUcDB1RUlq7qVAO4j/Skn6cot7OvVBdPEuP/ndwPTBvLydpeAziI4hl/p1ZVEGlAiu7ZqcQ9P3R1qQHcSzoj3ga8re8CSdW7Fdg3cew+YI+yJ2pzDeBAiqtDp1RVEGnAiu7dacS9P1R1qAEU/frfSqzsKzXVLaRrsKVrAW2tAUyn+Nf/01UVRMqk6B6eRsTA0Aw7AZxdcOxW4O6qCiJlcjdxL6cUxUB2w2wCvAGYW3B8b2JNdqnp3gLcWXB8MvDXohO0sQlQtHT3HzD41R53Efd0ytCWsR9WDWBDYt++9RLHK916WarAIcSzLJ08B2xOPOnaUdtqALNIB//jGPxqnxtIPwS0HvDh6oryf8NKACcXHPtmZaWQqvWNgmND2VZsGE2AvUi375cRT1Mlq0JSg21K8XbjuwB/6XSgTU2Aot17rsLgV3stongpu09UVZCXVF0DWIt4sm9i4mv7EzOnpLbah3i+pZN5xBOEr9pXsC01gCNIB/98DH613+2k17WYSMRIZapOAB8qOPa9ykohDVfRvX58ZaWg2ibA+sA/gfGJr/S9eYLUENsQTeFOFgETXvlmG5oAe5MO/vsx+DU6nibu+U42pXhPjIGqMgEcVXDs0spKIdVD0T1f1FQeqCqbAE+QXtdvJ7pvAS61yY7A3xLHHgamrPlG05cFfz3paZBPAtvnKodUY0U/ijsA/3jpH03vAyga2vhJRWWQ6qbo3j+yigJUlQCOLjh2TUVlkOqm6N6vZAesqpoAzwJbdvjYCuC1wNJc5ZBqbDwxNL5+h2OPEf0EQLObAJPoHPwQDwUZ/BpVS0k/GDeJNRJALlUkgKLtvmZXcH2pzopi4B25L15FAiha+/ymCq4v1VlRDBTtljUQVSSA1KymF4h10aVRdh+wMnEs+/ZhuRPAZsDOiWMPAoszX1+qu8WkVwR+IxFD2eROADsDr0kcuznztaWmSO1/sS7pH9CByJ0AphQcK9oTQBoldxQcK4qhvuVOALsn3l9F7AkoCR4gYqKTVAwNRO4EsEPi/XHAI5mvLTXFI6Qn5U3KeeGcCWA9YLfEsbkUr44qjZKFpJvE2wPr5LpwzgSwivSTTk+QHvqQRs1KIiY6mUzGKfs5E8DOpNs1Vv+ll0vFxDrERrpZ5EwAW5Pe/mtBxutKTZSKidcQsZRFzgRQ1HnxUMbrSk1UFBPZOgJzJoDJBceWZLyu1ERFMVEUS33JmQAWJd5/nnSHhzSqniBio5NULPUtZwLYM/H+c8CjGa8rNdGjRGx0koqlvuXuBOxkQ9L7A0ijajwRG500shNwReL9+aQznTSqniO9Z2AqlvqWMwEsT7w/B1iW8bpSEy0jYqOTVCz1bRijAOtmvKbUZKnYaOQoQGr2UrZpjVLDpWKjkTMBs1VbpBHTyCZAqqd/k4zXlJosFRvZRs2yPWYIPEPngs/LeE2pyebReQkw986QJEmSJEmSJEmSJEmSJEmSJEmSJEmSJEmSJEmSJEmSJEmSJEmSJEmSJEmSJEmSJEmSJEmSJEmSJEmSJEmSJEmSJEmSJEmSJEmSJEmSJEmSJEmSJEmSJEmSJEmSJEmSJEmSJEmSJEmSJEmSJEmSJEmSJElS//4Hmyxv28Uz2yUAAAAASUVORK5CYII=;rotation=-100;movable=1;resizable=1;rotatable=1;deletable=1;editable=1;locked=0;connectable=1;fillColor=#09555B;strokeColor=#BAC8D3;fontColor=#EEEEEE;" parent="4aQQsmctcQ0irrUEqPXQ-32" vertex="1">
          <mxGeometry x="83.96" y="-10.41" width="172.03" height="172.03" as="geometry" />
        </mxCell>
        <mxCell id="4aQQsmctcQ0irrUEqPXQ-34" value="" style="triangle;whiteSpace=wrap;html=1;rotation=-10;movable=1;resizable=1;rotatable=1;deletable=1;editable=1;locked=0;connectable=1;labelBackgroundColor=none;fillColor=#09555B;strokeColor=#BAC8D3;fontColor=#EEEEEE;" parent="4aQQsmctcQ0irrUEqPXQ-32" vertex="1">
          <mxGeometry x="186" y="-15" width="27.081250000000004" height="29.6875" as="geometry" />
        </mxCell>
        <mxCell id="4aQQsmctcQ0irrUEqPXQ-35" value="" style="group;rotation=-100;movable=1;resizable=1;rotatable=1;deletable=1;editable=1;locked=0;connectable=1;labelBackgroundColor=none;fontColor=#EEEEEE;" parent="1" vertex="1" connectable="0">
          <mxGeometry x="-710" y="420.31" width="173.32" height="197.16750000000002" as="geometry" />
        </mxCell>
        <mxCell id="4aQQsmctcQ0irrUEqPXQ-36" value="" style="shape=image;verticalLabelPosition=bottom;labelBackgroundColor=none;verticalAlign=top;aspect=fixed;imageAspect=0;image=data:image/png,iVBORw0KGgoAAAANSUhEUgAAAQAAAAEACAYAAABccqhmAAABS2lUWHRYTUw6Y29tLmFkb2JlLnhtcAAAAAAAPD94cGFja2V0IGJlZ2luPSLvu78iIGlkPSJXNU0wTXBDZWhpSHpyZVN6TlRjemtjOWQiPz4KPHg6eG1wbWV0YSB4bWxuczp4PSJhZG9iZTpuczptZXRhLyIgeDp4bXB0az0iQWRvYmUgWE1QIENvcmUgNS42LWMxNDIgNzkuMTYwOTI0LCAyMDE3LzA3LzEzLTAxOjA2OjM5ICAgICAgICAiPgogPHJkZjpSREYgeG1sbnM6cmRmPSJodHRwOi8vd3d3LnczLm9yZy8xOTk5LzAyLzIyLXJkZi1zeW50YXgtbnMjIj4KICA8cmRmOkRlc2NyaXB0aW9uIHJkZjphYm91dD0iIi8+CiA8L3JkZjpSREY+CjwveDp4bXBtZXRhPgo8P3hwYWNrZXQgZW5kPSJyIj8+nhxg7wAADFVJREFUeJzt3WnMXFUZwPF/WSQsBcomlUUK2AhFaQERZFPKJkVUrEQ0VERjNAjiBwGRoCIYxUSMS0wMikJEguCCgrLGKvuOBZSKgmytaO1qG0KhfnhKLDDnzn1n5ty5987/l8yHzp2596TvfZ452z0HJEmSJEmSJEmSJEmSJEmSJEmSJEmSJEmSJEmSJEmSJEmSJEmSJEmSJEmSJEmSJEmSJEmSJEmSJEmSJEmSJEmSJEmSJEmSJEmSJEmSJEmSJEmSJEmSJEmSJEmSJEmSJEmSJEmSJEmSJEmSJEmSJGBcrhOvWrUq16n1cmsDGwC7AOOBNwMbAxOAKWt8bltgm5LnfBp4ao1/PwQsBJYAfwKWAn8GlgMv9FF2lTRuXJ5QNQE0ywRg6urXDsCuq18bEUFfpSXAMuDh1a/HgftXvxZWXJbWMwGMnrWBPYH9iF/13Yhg32CYhSphOZEQHiRqC7cA92BNoS8mgNGwK3A4sD+wD/C64RZnYJ4BbgduBq4lEoTGwATQTusDRxEBfwQwebjFqcxc4HdEQvgNsGK4xak/E0B7vBT0R65+bTXc4gzds8A1q18mgwQTQPMdAJwIzAC2rOB6K4BVRNv7fsbeBl+b6Gxcm7hP1h9o6Tr7F3A18EPgjxVcrzFMAM20JfB+4CPAXhnOv5wYjlsI3AksIIbsVgL3AS+ufi3p8fwbA2utfk0D1iGGFjcH9iZGJXYhT8fk3cBFwM+IxDDSTADNMg04BZhJDNENwhLil/wBond9DtGWHvaQ2wSi7+JNxGjF7kTNYVDDksuAK4BvEUltJJkAmmEG8FngoAGc6xngDqKj7Bai53zpAM5bhfHEiMZ+RAfnWxnMiMZs4OtEM2GkmADq7UjgNPoP/NuA64ignw083+f56mJd4v9mf+AwYN8+zzcbOJ/oOBwJJoB6mgGcA+zRxzluAH5LDIuNyvj4rsSw5zuBQ/o4z73A2YxAjcAEUC/9/uLPAX5EDHvNHVCZmmoyMSx6AtGP0IvW1whMAPUwDfgS8K4evvsfojPrImJWnF5tH2LEZCawWQ/f/zXwBVrYWWgCGK6NiKr+Z3r47hzg28DlwOJBFqrFNgGOBU6mt1rBBUTTYNkgCzVMJoDhORE4F5g4xu9dS/RY3zjwEo2W6cTIyuFj/N484CxiUlHjmQCqNwX4DvD2MX7PwM+j10Twe+BTxASpxjIBVOt04Ktj/M7FROA/OPjiaA17E82xsSaCM4CvDb441TABVGMKcCHRGVWWv/jD0UuN4HbgYzSwNmACyO9UovOorDlEj/Mv8hRHJb2XGJkZS2fhR2lY34AJIJ8NiKG5Y0t+fgXwRWLcWfVxGvF3KfvU4uXEkOPyXAUaJBNAHvsAlwKTSn7+EuBMXr5gpupjW+ArwPElP/8Y8EEaMC8jVwJYK8tZm+FUYu59meB/GjgGmIXBX2dPEX+jY4i/WTeTiHvg1JyFqrNRrQFcSLQDy7gYOIkWTSoZERsB3yUSQhk/IDoIa8kmwGBsAVxFuafRFgAfB36etUTK7Rjg+8QiJt3cBhwN/DtriXpgAujfrsQTd9uV+OyvgE8Ss8nUfBOJmlyZJw+fJJ5UrNWTmfYB9Gc6MfZbJvhPB96Dwd8m84BDib9tN9sR98r0rCWqiVGoAbyPeAqvmwXEmLKLUbbbDODHlGsSzASuzFuccqwB9OZMygX/bGLnHYO//a4m/tazS3z2CuIeaq02J4AzgfNKfO4S4oGf+VlLozqZT/zNLynx2fNocRJoawIoG/znUn6YSO0zi7gHumltEmhjH0DZ4K9N+05DV7af6PPETMPK2QdQzucw+DV2VxL3RDfnEfdYa7SpBlDml38hcDCxwYb0SlOBm4jNToqcTsUPgzkRqNi7gV92+cxCYE/iARApZRJwD92TwKHEku6VMAGkTaf7H8Lg11iUTQKHUNFCMCaAziYBf+/yGYNfvSibBHakgnvLTsBX24LukzkWYPCrN48R9063zVdnAxvmL04eTU4A19N9bv9+GPzq3WN0X3NwOxq8I1FTE8BFRI9tkZnAIxWURe12F92HCA8k7snGaWICOInYR66I4/wapCuJpcOKnEDcm43StE7A3ek+hn8OsVqvNGjnE0uRF5kKPDDoCzsKELWVecBWBZ+5DDhu0BeW1vBT4AMFx58lFiB5cZAXdRQg1t8vCv6HMfiV33EUrxa0FQ3aK6IpCWAWsVZbygpiZpZUhUOJey7laBrylGkTmgBlJvtMJ+ZwS1U5mO6zAAc2SWiUmwDdVuU9A4Nf1buJ7g+f1X5F6bongNMoHu+/gwbv+KrGO4u4B1OmEvdwbdW5CbAT8GiXz2wKLO73QlIfNgEWdfnMtpTbqShpFJsAl3U5PhODX8O3mO4zBS+uoiC9qGsCOBbYq+D4ZTjTT/VxJcU/WAdTfvfpStWxCbAusTXTxonj/yWq/it7vYCUwTpEUyD1ZOAS4gnW53s5+Sg1AS4gHfwQCzga/KqblcS9mbIxcW/XSt1qANsBTxQcvx44rKcCSdW4juJJaZOAx8d60lF5FuBGor2UMhE38FC9bU3xvpJXEWtYjskoNAEOpDj4v4zBr/qbT9yrKUcDB1RUlq7qVAO4j/Skn6cot7OvVBdPEuP/ndwPTBvLydpeAziI4hl/p1ZVEGlAiu7ZqcQ9P3R1qQHcSzoj3ga8re8CSdW7Fdg3cew+YI+yJ2pzDeBAiqtDp1RVEGnAiu7dacS9P1R1qAEU/frfSqzsKzXVLaRrsKVrAW2tAUyn+Nf/01UVRMqk6B6eRsTA0Aw7AZxdcOxW4O6qCiJlcjdxL6cUxUB2w2wCvAGYW3B8b2JNdqnp3gLcWXB8MvDXohO0sQlQtHT3HzD41R53Efd0ytCWsR9WDWBDYt++9RLHK916WarAIcSzLJ08B2xOPOnaUdtqALNIB//jGPxqnxtIPwS0HvDh6oryf8NKACcXHPtmZaWQqvWNgmND2VZsGE2AvUi375cRT1Mlq0JSg21K8XbjuwB/6XSgTU2Aot17rsLgV3stongpu09UVZCXVF0DWIt4sm9i4mv7EzOnpLbah3i+pZN5xBOEr9pXsC01gCNIB/98DH613+2k17WYSMRIZapOAB8qOPa9ykohDVfRvX58ZaWg2ibA+sA/gfGJr/S9eYLUENsQTeFOFgETXvlmG5oAe5MO/vsx+DU6nibu+U42pXhPjIGqMgEcVXDs0spKIdVD0T1f1FQeqCqbAE+QXtdvJ7pvAS61yY7A3xLHHgamrPlG05cFfz3paZBPAtvnKodUY0U/ijsA/3jpH03vAyga2vhJRWWQ6qbo3j+yigJUlQCOLjh2TUVlkOqm6N6vZAesqpoAzwJbdvjYCuC1wNJc5ZBqbDwxNL5+h2OPEf0EQLObAJPoHPwQDwUZ/BpVS0k/GDeJNRJALlUkgKLtvmZXcH2pzopi4B25L15FAiha+/ymCq4v1VlRDBTtljUQVSSA1KymF4h10aVRdh+wMnEs+/ZhuRPAZsDOiWMPAoszX1+qu8WkVwR+IxFD2eROADsDr0kcuznztaWmSO1/sS7pH9CByJ0AphQcK9oTQBoldxQcK4qhvuVOALsn3l9F7AkoCR4gYqKTVAwNRO4EsEPi/XHAI5mvLTXFI6Qn5U3KeeGcCWA9YLfEsbkUr44qjZKFpJvE2wPr5LpwzgSwivSTTk+QHvqQRs1KIiY6mUzGKfs5E8DOpNs1Vv+ll0vFxDrERrpZ5EwAW5Pe/mtBxutKTZSKidcQsZRFzgRQ1HnxUMbrSk1UFBPZOgJzJoDJBceWZLyu1ERFMVEUS33JmQAWJd5/nnSHhzSqniBio5NULPUtZwLYM/H+c8CjGa8rNdGjRGx0koqlvuXuBOxkQ9L7A0ijajwRG500shNwReL9+aQznTSqniO9Z2AqlvqWMwEsT7w/B1iW8bpSEy0jYqOTVCz1bRijAOtmvKbUZKnYaOQoQGr2UrZpjVLDpWKjkTMBs1VbpBHTyCZAqqd/k4zXlJosFRvZRs2yPWYIPEPngs/LeE2pyebReQkw986QJEmSJEmSJEmSJEmSJEmSJEmSJEmSJEmSJEmSJEmSJEmSJEmSJEmSJEmSJEmSJEmSJEmSJEmSJEmSJEmSJEmSJEmSJEmSJEmSJEmSJEmSJEmSJEmSJEmSJEmSJEmSJEmSJEmSJEmSJEmSJEmSJEmSJElS//4Hmyxv28Uz2yUAAAAASUVORK5CYII=;rotation=-280;movable=1;resizable=1;rotatable=1;deletable=1;editable=1;locked=0;connectable=1;fillColor=#09555B;strokeColor=#BAC8D3;fontColor=#EEEEEE;" parent="4aQQsmctcQ0irrUEqPXQ-35" vertex="1">
          <mxGeometry x="-77" y="27" width="170.16501696143104" height="170.16501696143104" as="geometry" />
        </mxCell>
        <mxCell id="4aQQsmctcQ0irrUEqPXQ-37" value="" style="triangle;whiteSpace=wrap;html=1;rotation=-190;movable=1;resizable=1;rotatable=1;deletable=1;editable=1;locked=0;connectable=1;labelBackgroundColor=none;fillColor=#09555B;strokeColor=#BAC8D3;fontColor=#EEEEEE;" parent="4aQQsmctcQ0irrUEqPXQ-35" vertex="1">
          <mxGeometry x="-32.73" y="168.31" width="20" height="27.17" as="geometry" />
        </mxCell>
        <mxCell id="4aQQsmctcQ0irrUEqPXQ-38" value="t = 5 seconds" style="text;html=1;align=center;verticalAlign=middle;whiteSpace=wrap;rounded=0;movable=1;resizable=1;rotatable=1;deletable=1;editable=1;locked=0;connectable=1;labelBackgroundColor=none;fontColor=#EEEEEE;" parent="1" vertex="1">
          <mxGeometry x="-1020" y="550.31" width="80" height="30" as="geometry" />
        </mxCell>
        <mxCell id="4aQQsmctcQ0irrUEqPXQ-39" value="t = 1 seconds" style="text;html=1;align=center;verticalAlign=middle;whiteSpace=wrap;rounded=0;movable=1;resizable=1;rotatable=1;deletable=1;editable=1;locked=0;connectable=1;labelBackgroundColor=none;fontColor=#EEEEEE;" parent="1" vertex="1">
          <mxGeometry x="-1030" y="370.31" width="80" height="30" as="geometry" />
        </mxCell>
        <mxCell id="4aQQsmctcQ0irrUEqPXQ-41" value="t = 1 seconds" style="text;html=1;align=center;verticalAlign=middle;whiteSpace=wrap;rounded=0;movable=1;resizable=1;rotatable=1;deletable=1;editable=1;locked=0;connectable=1;labelBackgroundColor=none;fontColor=#EEEEEE;" parent="1" vertex="1">
          <mxGeometry x="-687" y="470.31" width="80" height="30" as="geometry" />
        </mxCell>
        <mxCell id="4aQQsmctcQ0irrUEqPXQ-42" value="flag = r" style="text;html=1;align=center;verticalAlign=middle;whiteSpace=wrap;rounded=0;movable=1;resizable=1;rotatable=1;deletable=1;editable=1;locked=0;connectable=1;labelBackgroundColor=none;fontColor=#EEEEEE;" parent="1" vertex="1">
          <mxGeometry x="-940" y="370.31" width="80" height="30" as="geometry" />
        </mxCell>
        <mxCell id="4aQQsmctcQ0irrUEqPXQ-44" value="flag = g" style="text;html=1;align=center;verticalAlign=middle;whiteSpace=wrap;rounded=0;movable=1;resizable=1;rotatable=1;deletable=1;editable=1;locked=0;connectable=1;labelBackgroundColor=none;fontColor=#EEEEEE;" parent="1" vertex="1">
          <mxGeometry x="-740" y="520.31" width="80" height="30" as="geometry" />
        </mxCell>
        <mxCell id="4aQQsmctcQ0irrUEqPXQ-53" value="&lt;font style=&quot;font-size: 14px;&quot;&gt;Green Light&lt;/font&gt;" style="ellipse;whiteSpace=wrap;html=1;movable=1;resizable=1;rotatable=1;deletable=1;editable=1;locked=0;connectable=1;labelBackgroundColor=none;fillColor=#09555B;strokeColor=#BAC8D3;fontColor=#EEEEEE;" parent="1" vertex="1">
          <mxGeometry x="-267" y="340.31" width="120" height="80" as="geometry" />
        </mxCell>
        <mxCell id="4aQQsmctcQ0irrUEqPXQ-55" value="" style="shape=image;verticalLabelPosition=bottom;labelBackgroundColor=none;verticalAlign=top;aspect=fixed;imageAspect=0;image=data:image/png,iVBORw0KGgoAAAANSUhEUgAAAQAAAAEACAYAAABccqhmAAABS2lUWHRYTUw6Y29tLmFkb2JlLnhtcAAAAAAAPD94cGFja2V0IGJlZ2luPSLvu78iIGlkPSJXNU0wTXBDZWhpSHpyZVN6TlRjemtjOWQiPz4KPHg6eG1wbWV0YSB4bWxuczp4PSJhZG9iZTpuczptZXRhLyIgeDp4bXB0az0iQWRvYmUgWE1QIENvcmUgNS42LWMxNDIgNzkuMTYwOTI0LCAyMDE3LzA3LzEzLTAxOjA2OjM5ICAgICAgICAiPgogPHJkZjpSREYgeG1sbnM6cmRmPSJodHRwOi8vd3d3LnczLm9yZy8xOTk5LzAyLzIyLXJkZi1zeW50YXgtbnMjIj4KICA8cmRmOkRlc2NyaXB0aW9uIHJkZjphYm91dD0iIi8+CiA8L3JkZjpSREY+CjwveDp4bXBtZXRhPgo8P3hwYWNrZXQgZW5kPSJyIj8+nhxg7wAADFVJREFUeJzt3WnMXFUZwPF/WSQsBcomlUUK2AhFaQERZFPKJkVUrEQ0VERjNAjiBwGRoCIYxUSMS0wMikJEguCCgrLGKvuOBZSKgmytaO1qG0KhfnhKLDDnzn1n5ty5987/l8yHzp2596TvfZ452z0HJEmSJEmSJEmSJEmSJEmSJEmSJEmSJEmSJEmSJEmSJEmSJEmSJEmSJEmSJEmSJEmSJEmSJEmSJEmSJEmSJEmSJEmSJEmSJEmSJEmSJEmSJEmSJEmSJEmSJEmSJEmSJEmSJEmSJEmSJEmSJEmSJGBcrhOvWrUq16n1cmsDGwC7AOOBNwMbAxOAKWt8bltgm5LnfBp4ao1/PwQsBJYAfwKWAn8GlgMv9FF2lTRuXJ5QNQE0ywRg6urXDsCuq18bEUFfpSXAMuDh1a/HgftXvxZWXJbWMwGMnrWBPYH9iF/13Yhg32CYhSphOZEQHiRqC7cA92BNoS8mgNGwK3A4sD+wD/C64RZnYJ4BbgduBq4lEoTGwATQTusDRxEBfwQwebjFqcxc4HdEQvgNsGK4xak/E0B7vBT0R65+bTXc4gzds8A1q18mgwQTQPMdAJwIzAC2rOB6K4BVRNv7fsbeBl+b6Gxcm7hP1h9o6Tr7F3A18EPgjxVcrzFMAM20JfB+4CPAXhnOv5wYjlsI3AksIIbsVgL3AS+ufi3p8fwbA2utfk0D1iGGFjcH9iZGJXYhT8fk3cBFwM+IxDDSTADNMg04BZhJDNENwhLil/wBond9DtGWHvaQ2wSi7+JNxGjF7kTNYVDDksuAK4BvEUltJJkAmmEG8FngoAGc6xngDqKj7Bai53zpAM5bhfHEiMZ+RAfnWxnMiMZs4OtEM2GkmADq7UjgNPoP/NuA64ignw083+f56mJd4v9mf+AwYN8+zzcbOJ/oOBwJJoB6mgGcA+zRxzluAH5LDIuNyvj4rsSw5zuBQ/o4z73A2YxAjcAEUC/9/uLPAX5EDHvNHVCZmmoyMSx6AtGP0IvW1whMAPUwDfgS8K4evvsfojPrImJWnF5tH2LEZCawWQ/f/zXwBVrYWWgCGK6NiKr+Z3r47hzg28DlwOJBFqrFNgGOBU6mt1rBBUTTYNkgCzVMJoDhORE4F5g4xu9dS/RY3zjwEo2W6cTIyuFj/N484CxiUlHjmQCqNwX4DvD2MX7PwM+j10Twe+BTxASpxjIBVOt04Ktj/M7FROA/OPjiaA17E82xsSaCM4CvDb441TABVGMKcCHRGVWWv/jD0UuN4HbgYzSwNmACyO9UovOorDlEj/Mv8hRHJb2XGJkZS2fhR2lY34AJIJ8NiKG5Y0t+fgXwRWLcWfVxGvF3KfvU4uXEkOPyXAUaJBNAHvsAlwKTSn7+EuBMXr5gpupjW+ArwPElP/8Y8EEaMC8jVwJYK8tZm+FUYu59meB/GjgGmIXBX2dPEX+jY4i/WTeTiHvg1JyFqrNRrQFcSLQDy7gYOIkWTSoZERsB3yUSQhk/IDoIa8kmwGBsAVxFuafRFgAfB36etUTK7Rjg+8QiJt3cBhwN/DtriXpgAujfrsQTd9uV+OyvgE8Ss8nUfBOJmlyZJw+fJJ5UrNWTmfYB9Gc6MfZbJvhPB96Dwd8m84BDib9tN9sR98r0rCWqiVGoAbyPeAqvmwXEmLKLUbbbDODHlGsSzASuzFuccqwB9OZMygX/bGLnHYO//a4m/tazS3z2CuIeaq02J4AzgfNKfO4S4oGf+VlLozqZT/zNLynx2fNocRJoawIoG/znUn6YSO0zi7gHumltEmhjH0DZ4K9N+05DV7af6PPETMPK2QdQzucw+DV2VxL3RDfnEfdYa7SpBlDml38hcDCxwYb0SlOBm4jNToqcTsUPgzkRqNi7gV92+cxCYE/iARApZRJwD92TwKHEku6VMAGkTaf7H8Lg11iUTQKHUNFCMCaAziYBf+/yGYNfvSibBHakgnvLTsBX24LukzkWYPCrN48R9063zVdnAxvmL04eTU4A19N9bv9+GPzq3WN0X3NwOxq8I1FTE8BFRI9tkZnAIxWURe12F92HCA8k7snGaWICOInYR66I4/wapCuJpcOKnEDcm43StE7A3ek+hn8OsVqvNGjnE0uRF5kKPDDoCzsKELWVecBWBZ+5DDhu0BeW1vBT4AMFx58lFiB5cZAXdRQg1t8vCv6HMfiV33EUrxa0FQ3aK6IpCWAWsVZbygpiZpZUhUOJey7laBrylGkTmgBlJvtMJ+ZwS1U5mO6zAAc2SWiUmwDdVuU9A4Nf1buJ7g+f1X5F6bongNMoHu+/gwbv+KrGO4u4B1OmEvdwbdW5CbAT8GiXz2wKLO73QlIfNgEWdfnMtpTbqShpFJsAl3U5PhODX8O3mO4zBS+uoiC9qGsCOBbYq+D4ZTjTT/VxJcU/WAdTfvfpStWxCbAusTXTxonj/yWq/it7vYCUwTpEUyD1ZOAS4gnW53s5+Sg1AS4gHfwQCzga/KqblcS9mbIxcW/XSt1qANsBTxQcvx44rKcCSdW4juJJaZOAx8d60lF5FuBGor2UMhE38FC9bU3xvpJXEWtYjskoNAEOpDj4v4zBr/qbT9yrKUcDB1RUlq7qVAO4j/Skn6cot7OvVBdPEuP/ndwPTBvLydpeAziI4hl/p1ZVEGlAiu7ZqcQ9P3R1qQHcSzoj3ga8re8CSdW7Fdg3cew+YI+yJ2pzDeBAiqtDp1RVEGnAiu7dacS9P1R1qAEU/frfSqzsKzXVLaRrsKVrAW2tAUyn+Nf/01UVRMqk6B6eRsTA0Aw7AZxdcOxW4O6qCiJlcjdxL6cUxUB2w2wCvAGYW3B8b2JNdqnp3gLcWXB8MvDXohO0sQlQtHT3HzD41R53Efd0ytCWsR9WDWBDYt++9RLHK916WarAIcSzLJ08B2xOPOnaUdtqALNIB//jGPxqnxtIPwS0HvDh6oryf8NKACcXHPtmZaWQqvWNgmND2VZsGE2AvUi375cRT1Mlq0JSg21K8XbjuwB/6XSgTU2Aot17rsLgV3stongpu09UVZCXVF0DWIt4sm9i4mv7EzOnpLbah3i+pZN5xBOEr9pXsC01gCNIB/98DH613+2k17WYSMRIZapOAB8qOPa9ykohDVfRvX58ZaWg2ibA+sA/gfGJr/S9eYLUENsQTeFOFgETXvlmG5oAe5MO/vsx+DU6nibu+U42pXhPjIGqMgEcVXDs0spKIdVD0T1f1FQeqCqbAE+QXtdvJ7pvAS61yY7A3xLHHgamrPlG05cFfz3paZBPAtvnKodUY0U/ijsA/3jpH03vAyga2vhJRWWQ6qbo3j+yigJUlQCOLjh2TUVlkOqm6N6vZAesqpoAzwJbdvjYCuC1wNJc5ZBqbDwxNL5+h2OPEf0EQLObAJPoHPwQDwUZ/BpVS0k/GDeJNRJALlUkgKLtvmZXcH2pzopi4B25L15FAiha+/ymCq4v1VlRDBTtljUQVSSA1KymF4h10aVRdh+wMnEs+/ZhuRPAZsDOiWMPAoszX1+qu8WkVwR+IxFD2eROADsDr0kcuznztaWmSO1/sS7pH9CByJ0AphQcK9oTQBoldxQcK4qhvuVOALsn3l9F7AkoCR4gYqKTVAwNRO4EsEPi/XHAI5mvLTXFI6Qn5U3KeeGcCWA9YLfEsbkUr44qjZKFpJvE2wPr5LpwzgSwivSTTk+QHvqQRs1KIiY6mUzGKfs5E8DOpNs1Vv+ll0vFxDrERrpZ5EwAW5Pe/mtBxutKTZSKidcQsZRFzgRQ1HnxUMbrSk1UFBPZOgJzJoDJBceWZLyu1ERFMVEUS33JmQAWJd5/nnSHhzSqniBio5NULPUtZwLYM/H+c8CjGa8rNdGjRGx0koqlvuXuBOxkQ9L7A0ijajwRG500shNwReL9+aQznTSqniO9Z2AqlvqWMwEsT7w/B1iW8bpSEy0jYqOTVCz1bRijAOtmvKbUZKnYaOQoQGr2UrZpjVLDpWKjkTMBs1VbpBHTyCZAqqd/k4zXlJosFRvZRs2yPWYIPEPngs/LeE2pyebReQkw986QJEmSJEmSJEmSJEmSJEmSJEmSJEmSJEmSJEmSJEmSJEmSJEmSJEmSJEmSJEmSJEmSJEmSJEmSJEmSJEmSJEmSJEmSJEmSJEmSJEmSJEmSJEmSJEmSJEmSJEmSJEmSJEmSJEmSJEmSJEmSJEmSJEmSJElS//4Hmyxv28Uz2yUAAAAASUVORK5CYII=;rotation=-280;movable=1;resizable=1;rotatable=1;deletable=1;editable=1;locked=0;connectable=1;fillColor=#09555B;strokeColor=#BAC8D3;fontColor=#EEEEEE;" parent="1" vertex="1">
          <mxGeometry x="-194" y="347" width="170.16501696143104" height="170.16501696143104" as="geometry" />
        </mxCell>
        <mxCell id="4aQQsmctcQ0irrUEqPXQ-56" value="" style="triangle;whiteSpace=wrap;html=1;rotation=-190;movable=1;resizable=1;rotatable=1;deletable=1;editable=1;locked=0;connectable=1;labelBackgroundColor=none;fillColor=#09555B;strokeColor=#BAC8D3;fontColor=#EEEEEE;" parent="1" vertex="1">
          <mxGeometry x="-149.73000000000002" y="488.31" width="20" height="27.17" as="geometry" />
        </mxCell>
        <mxCell id="4aQQsmctcQ0irrUEqPXQ-57" value="&lt;font style=&quot;font-size: 14px;&quot;&gt;Yellow Light&lt;/font&gt;" style="ellipse;whiteSpace=wrap;html=1;movable=1;resizable=1;rotatable=1;deletable=1;editable=1;locked=0;connectable=1;labelBackgroundColor=none;fillColor=#09555B;strokeColor=#BAC8D3;fontColor=#EEEEEE;" parent="1" vertex="1">
          <mxGeometry x="-267" y="470.31" width="120" height="80" as="geometry" />
        </mxCell>
        <mxCell id="4aQQsmctcQ0irrUEqPXQ-59" value="" style="shape=image;verticalLabelPosition=bottom;labelBackgroundColor=none;verticalAlign=top;aspect=fixed;imageAspect=0;image=data:image/png,iVBORw0KGgoAAAANSUhEUgAAAQAAAAEACAYAAABccqhmAAABS2lUWHRYTUw6Y29tLmFkb2JlLnhtcAAAAAAAPD94cGFja2V0IGJlZ2luPSLvu78iIGlkPSJXNU0wTXBDZWhpSHpyZVN6TlRjemtjOWQiPz4KPHg6eG1wbWV0YSB4bWxuczp4PSJhZG9iZTpuczptZXRhLyIgeDp4bXB0az0iQWRvYmUgWE1QIENvcmUgNS42LWMxNDIgNzkuMTYwOTI0LCAyMDE3LzA3LzEzLTAxOjA2OjM5ICAgICAgICAiPgogPHJkZjpSREYgeG1sbnM6cmRmPSJodHRwOi8vd3d3LnczLm9yZy8xOTk5LzAyLzIyLXJkZi1zeW50YXgtbnMjIj4KICA8cmRmOkRlc2NyaXB0aW9uIHJkZjphYm91dD0iIi8+CiA8L3JkZjpSREY+CjwveDp4bXBtZXRhPgo8P3hwYWNrZXQgZW5kPSJyIj8+nhxg7wAADFVJREFUeJzt3WnMXFUZwPF/WSQsBcomlUUK2AhFaQERZFPKJkVUrEQ0VERjNAjiBwGRoCIYxUSMS0wMikJEguCCgrLGKvuOBZSKgmytaO1qG0KhfnhKLDDnzn1n5ty5987/l8yHzp2596TvfZ452z0HJEmSJEmSJEmSJEmSJEmSJEmSJEmSJEmSJEmSJEmSJEmSJEmSJEmSJEmSJEmSJEmSJEmSJEmSJEmSJEmSJEmSJEmSJEmSJEmSJEmSJEmSJEmSJEmSJEmSJEmSJEmSJEmSJEmSJEmSJEmSJEmSJGBcrhOvWrUq16n1cmsDGwC7AOOBNwMbAxOAKWt8bltgm5LnfBp4ao1/PwQsBJYAfwKWAn8GlgMv9FF2lTRuXJ5QNQE0ywRg6urXDsCuq18bEUFfpSXAMuDh1a/HgftXvxZWXJbWMwGMnrWBPYH9iF/13Yhg32CYhSphOZEQHiRqC7cA92BNoS8mgNGwK3A4sD+wD/C64RZnYJ4BbgduBq4lEoTGwATQTusDRxEBfwQwebjFqcxc4HdEQvgNsGK4xak/E0B7vBT0R65+bTXc4gzds8A1q18mgwQTQPMdAJwIzAC2rOB6K4BVRNv7fsbeBl+b6Gxcm7hP1h9o6Tr7F3A18EPgjxVcrzFMAM20JfB+4CPAXhnOv5wYjlsI3AksIIbsVgL3AS+ufi3p8fwbA2utfk0D1iGGFjcH9iZGJXYhT8fk3cBFwM+IxDDSTADNMg04BZhJDNENwhLil/wBond9DtGWHvaQ2wSi7+JNxGjF7kTNYVDDksuAK4BvEUltJJkAmmEG8FngoAGc6xngDqKj7Bai53zpAM5bhfHEiMZ+RAfnWxnMiMZs4OtEM2GkmADq7UjgNPoP/NuA64ignw083+f56mJd4v9mf+AwYN8+zzcbOJ/oOBwJJoB6mgGcA+zRxzluAH5LDIuNyvj4rsSw5zuBQ/o4z73A2YxAjcAEUC/9/uLPAX5EDHvNHVCZmmoyMSx6AtGP0IvW1whMAPUwDfgS8K4evvsfojPrImJWnF5tH2LEZCawWQ/f/zXwBVrYWWgCGK6NiKr+Z3r47hzg28DlwOJBFqrFNgGOBU6mt1rBBUTTYNkgCzVMJoDhORE4F5g4xu9dS/RY3zjwEo2W6cTIyuFj/N484CxiUlHjmQCqNwX4DvD2MX7PwM+j10Twe+BTxASpxjIBVOt04Ktj/M7FROA/OPjiaA17E82xsSaCM4CvDb441TABVGMKcCHRGVWWv/jD0UuN4HbgYzSwNmACyO9UovOorDlEj/Mv8hRHJb2XGJkZS2fhR2lY34AJIJ8NiKG5Y0t+fgXwRWLcWfVxGvF3KfvU4uXEkOPyXAUaJBNAHvsAlwKTSn7+EuBMXr5gpupjW+ArwPElP/8Y8EEaMC8jVwJYK8tZm+FUYu59meB/GjgGmIXBX2dPEX+jY4i/WTeTiHvg1JyFqrNRrQFcSLQDy7gYOIkWTSoZERsB3yUSQhk/IDoIa8kmwGBsAVxFuafRFgAfB36etUTK7Rjg+8QiJt3cBhwN/DtriXpgAujfrsQTd9uV+OyvgE8Ss8nUfBOJmlyZJw+fJJ5UrNWTmfYB9Gc6MfZbJvhPB96Dwd8m84BDib9tN9sR98r0rCWqiVGoAbyPeAqvmwXEmLKLUbbbDODHlGsSzASuzFuccqwB9OZMygX/bGLnHYO//a4m/tazS3z2CuIeaq02J4AzgfNKfO4S4oGf+VlLozqZT/zNLynx2fNocRJoawIoG/znUn6YSO0zi7gHumltEmhjH0DZ4K9N+05DV7af6PPETMPK2QdQzucw+DV2VxL3RDfnEfdYa7SpBlDml38hcDCxwYb0SlOBm4jNToqcTsUPgzkRqNi7gV92+cxCYE/iARApZRJwD92TwKHEku6VMAGkTaf7H8Lg11iUTQKHUNFCMCaAziYBf+/yGYNfvSibBHakgnvLTsBX24LukzkWYPCrN48R9063zVdnAxvmL04eTU4A19N9bv9+GPzq3WN0X3NwOxq8I1FTE8BFRI9tkZnAIxWURe12F92HCA8k7snGaWICOInYR66I4/wapCuJpcOKnEDcm43StE7A3ek+hn8OsVqvNGjnE0uRF5kKPDDoCzsKELWVecBWBZ+5DDhu0BeW1vBT4AMFx58lFiB5cZAXdRQg1t8vCv6HMfiV33EUrxa0FQ3aK6IpCWAWsVZbygpiZpZUhUOJey7laBrylGkTmgBlJvtMJ+ZwS1U5mO6zAAc2SWiUmwDdVuU9A4Nf1buJ7g+f1X5F6bongNMoHu+/gwbv+KrGO4u4B1OmEvdwbdW5CbAT8GiXz2wKLO73QlIfNgEWdfnMtpTbqShpFJsAl3U5PhODX8O3mO4zBS+uoiC9qGsCOBbYq+D4ZTjTT/VxJcU/WAdTfvfpStWxCbAusTXTxonj/yWq/it7vYCUwTpEUyD1ZOAS4gnW53s5+Sg1AS4gHfwQCzga/KqblcS9mbIxcW/XSt1qANsBTxQcvx44rKcCSdW4juJJaZOAx8d60lF5FuBGor2UMhE38FC9bU3xvpJXEWtYjskoNAEOpDj4v4zBr/qbT9yrKUcDB1RUlq7qVAO4j/Skn6cot7OvVBdPEuP/ndwPTBvLydpeAziI4hl/p1ZVEGlAiu7ZqcQ9P3R1qQHcSzoj3ga8re8CSdW7Fdg3cew+YI+yJ2pzDeBAiqtDp1RVEGnAiu7dacS9P1R1qAEU/frfSqzsKzXVLaRrsKVrAW2tAUyn+Nf/01UVRMqk6B6eRsTA0Aw7AZxdcOxW4O6qCiJlcjdxL6cUxUB2w2wCvAGYW3B8b2JNdqnp3gLcWXB8MvDXohO0sQlQtHT3HzD41R53Efd0ytCWsR9WDWBDYt++9RLHK916WarAIcSzLJ08B2xOPOnaUdtqALNIB//jGPxqnxtIPwS0HvDh6oryf8NKACcXHPtmZaWQqvWNgmND2VZsGE2AvUi375cRT1Mlq0JSg21K8XbjuwB/6XSgTU2Aot17rsLgV3stongpu09UVZCXVF0DWIt4sm9i4mv7EzOnpLbah3i+pZN5xBOEr9pXsC01gCNIB/98DH613+2k17WYSMRIZapOAB8qOPa9ykohDVfRvX58ZaWg2ibA+sA/gfGJr/S9eYLUENsQTeFOFgETXvlmG5oAe5MO/vsx+DU6nibu+U42pXhPjIGqMgEcVXDs0spKIdVD0T1f1FQeqCqbAE+QXtdvJ7pvAS61yY7A3xLHHgamrPlG05cFfz3paZBPAtvnKodUY0U/ijsA/3jpH03vAyga2vhJRWWQ6qbo3j+yigJUlQCOLjh2TUVlkOqm6N6vZAesqpoAzwJbdvjYCuC1wNJc5ZBqbDwxNL5+h2OPEf0EQLObAJPoHPwQDwUZ/BpVS0k/GDeJNRJALlUkgKLtvmZXcH2pzopi4B25L15FAiha+/ymCq4v1VlRDBTtljUQVSSA1KymF4h10aVRdh+wMnEs+/ZhuRPAZsDOiWMPAoszX1+qu8WkVwR+IxFD2eROADsDr0kcuznztaWmSO1/sS7pH9CByJ0AphQcK9oTQBoldxQcK4qhvuVOALsn3l9F7AkoCR4gYqKTVAwNRO4EsEPi/XHAI5mvLTXFI6Qn5U3KeeGcCWA9YLfEsbkUr44qjZKFpJvE2wPr5LpwzgSwivSTTk+QHvqQRs1KIiY6mUzGKfs5E8DOpNs1Vv+ll0vFxDrERrpZ5EwAW5Pe/mtBxutKTZSKidcQsZRFzgRQ1HnxUMbrSk1UFBPZOgJzJoDJBceWZLyu1ERFMVEUS33JmQAWJd5/nnSHhzSqniBio5NULPUtZwLYM/H+c8CjGa8rNdGjRGx0koqlvuXuBOxkQ9L7A0ijajwRG500shNwReL9+aQznTSqniO9Z2AqlvqWMwEsT7w/B1iW8bpSEy0jYqOTVCz1bRijAOtmvKbUZKnYaOQoQGr2UrZpjVLDpWKjkTMBs1VbpBHTyCZAqqd/k4zXlJosFRvZRs2yPWYIPEPngs/LeE2pyebReQkw986QJEmSJEmSJEmSJEmSJEmSJEmSJEmSJEmSJEmSJEmSJEmSJEmSJEmSJEmSJEmSJEmSJEmSJEmSJEmSJEmSJEmSJEmSJEmSJEmSJEmSJEmSJEmSJEmSJEmSJEmSJEmSJEmSJEmSJEmSJEmSJEmSJEmSJElS//4Hmyxv28Uz2yUAAAAASUVORK5CYII=;rotation=-100;movable=1;resizable=1;rotatable=1;deletable=1;editable=1;locked=0;connectable=1;fillColor=#09555B;strokeColor=#BAC8D3;fontColor=#EEEEEE;" parent="1" vertex="1">
          <mxGeometry x="-397" y="363.31" width="170.16501696143104" height="170.16501696143104" as="geometry" />
        </mxCell>
        <mxCell id="4aQQsmctcQ0irrUEqPXQ-60" value="" style="triangle;whiteSpace=wrap;html=1;rotation=-10;movable=1;resizable=1;rotatable=1;deletable=1;editable=1;locked=0;connectable=1;labelBackgroundColor=none;fillColor=#09555B;strokeColor=#BAC8D3;fontColor=#EEEEEE;" parent="1" vertex="1">
          <mxGeometry x="-291" y="355.31" width="27.081250000000004" height="29.6875" as="geometry" />
        </mxCell>
        <mxCell id="4aQQsmctcQ0irrUEqPXQ-62" value="" style="endArrow=none;html=1;rounded=0;exitX=-0.001;exitY=0.096;exitDx=0;exitDy=0;exitPerimeter=0;entryX=0.999;entryY=0.095;entryDx=0;entryDy=0;entryPerimeter=0;elbow=vertical;labelBackgroundColor=none;strokeColor=#0B4D6A;fontColor=default;" parent="1" source="4aQQsmctcQ0irrUEqPXQ-61" target="4aQQsmctcQ0irrUEqPXQ-61" edge="1">
          <mxGeometry width="50" height="50" relative="1" as="geometry">
            <mxPoint x="-337" y="370" as="sourcePoint" />
            <mxPoint x="-287" y="320" as="targetPoint" />
          </mxGeometry>
        </mxCell>
        <mxCell id="4aQQsmctcQ0irrUEqPXQ-63" value="Arduino 2" style="text;html=1;align=center;verticalAlign=middle;whiteSpace=wrap;rounded=0;labelBackgroundColor=none;fontColor=#EEEEEE;" parent="1" vertex="1">
          <mxGeometry x="-397" y="240" width="60" height="30" as="geometry" />
        </mxCell>
        <mxCell id="4aQQsmctcQ0irrUEqPXQ-64" value="" style="endArrow=classic;html=1;rounded=0;exitX=0.824;exitY=0.134;exitDx=0;exitDy=0;entryX=-0.002;entryY=0.149;entryDx=0;entryDy=0;entryPerimeter=0;exitPerimeter=0;labelBackgroundColor=none;strokeColor=#0B4D6A;fontColor=default;" parent="1" source="4aQQsmctcQ0irrUEqPXQ-3" target="4aQQsmctcQ0irrUEqPXQ-61" edge="1">
          <mxGeometry width="50" height="50" relative="1" as="geometry">
            <mxPoint x="-760.3735931288068" y="292.02572875253804" as="sourcePoint" />
            <mxPoint x="-406.9999999999998" y="287.67999999999995" as="targetPoint" />
          </mxGeometry>
        </mxCell>
        <mxCell id="4aQQsmctcQ0irrUEqPXQ-65" value="" style="endArrow=classic;html=1;rounded=0;entryX=-0.002;entryY=0.149;entryDx=0;entryDy=0;entryPerimeter=0;exitX=0.008;exitY=0.652;exitDx=0;exitDy=0;exitPerimeter=0;labelBackgroundColor=none;strokeColor=#0B4D6A;fontColor=default;" parent="1" source="4aQQsmctcQ0irrUEqPXQ-36" edge="1">
          <mxGeometry width="50" height="50" relative="1" as="geometry">
            <mxPoint x="-737" y="456" as="sourcePoint" />
            <mxPoint x="-407.20000000000005" y="458.14" as="targetPoint" />
          </mxGeometry>
        </mxCell>
        <mxCell id="4aQQsmctcQ0irrUEqPXQ-67" value="" style="endArrow=classic;html=1;rounded=0;exitX=0.824;exitY=0.134;exitDx=0;exitDy=0;entryX=-0.002;entryY=0.149;entryDx=0;entryDy=0;entryPerimeter=0;exitPerimeter=0;labelBackgroundColor=none;strokeColor=#0B4D6A;fontColor=default;" parent="1" edge="1">
          <mxGeometry width="50" height="50" relative="1" as="geometry">
            <mxPoint x="-760.2" y="619.97" as="sourcePoint" />
            <mxPoint x="-407.20000000000005" y="620.97" as="targetPoint" />
          </mxGeometry>
        </mxCell>
        <mxCell id="4aQQsmctcQ0irrUEqPXQ-70" value="sends signal &#39;r&#39;" style="text;html=1;align=center;verticalAlign=middle;whiteSpace=wrap;rounded=0;labelBackgroundColor=none;fontColor=#EEEEEE;" parent="1" vertex="1">
          <mxGeometry x="-557" y="590" width="97" height="30" as="geometry" />
        </mxCell>
        <mxCell id="4aQQsmctcQ0irrUEqPXQ-71" value="Recieved&amp;nbsp;&lt;div&gt;signal = r&lt;/div&gt;" style="text;html=1;align=center;verticalAlign=middle;whiteSpace=wrap;rounded=0;labelBackgroundColor=none;fontColor=#EEEEEE;" parent="1" vertex="1">
          <mxGeometry x="-357.91999999999996" y="417.48" width="94" height="52.83" as="geometry" />
        </mxCell>
        <mxCell id="4aQQsmctcQ0irrUEqPXQ-73" value="" style="endArrow=none;html=1;rounded=0;exitX=-0.001;exitY=0.096;exitDx=0;exitDy=0;exitPerimeter=0;elbow=vertical;labelBackgroundColor=none;strokeColor=#0B4D6A;fontColor=default;" parent="1" edge="1">
          <mxGeometry width="50" height="50" relative="1" as="geometry">
            <mxPoint x="-1046.6" y="239.92000000000002" as="sourcePoint" />
            <mxPoint x="-597" y="240" as="targetPoint" />
          </mxGeometry>
        </mxCell>
        <mxCell id="4aQQsmctcQ0irrUEqPXQ-75" value="Arduino 1" style="text;html=1;align=center;verticalAlign=middle;whiteSpace=wrap;rounded=0;labelBackgroundColor=none;fontColor=#EEEEEE;" parent="1" vertex="1">
          <mxGeometry x="-852" y="210" width="60" height="30" as="geometry" />
        </mxCell>
        <mxCell id="4aQQsmctcQ0irrUEqPXQ-40" value="t = 5 seconds" style="text;html=1;align=center;verticalAlign=middle;whiteSpace=wrap;rounded=0;movable=1;resizable=1;rotatable=1;deletable=1;editable=1;locked=0;connectable=1;labelBackgroundColor=none;fontColor=#EEEEEE;" parent="1" vertex="1">
          <mxGeometry x="-110" y="343.58" width="80" height="30" as="geometry" />
        </mxCell>
      </root>
    </mxGraphModel>
  </diagram>
</mxfile>
